#!OML:ASF F:\VICON\USERDATA\INSTALL\rory3\rory3.ASF
:FULLY-SPECIFIED
:DEGREES
1825
root 4.68373 18.076 0.465823 -728.789 -64.3316 9.02804
lowerback 11.1391 2.61444 -3.15624
upperback 1.06869 3.01509 -0.592937
thorax -5.25609 1.53218 0.687173
lowerneck -17.6873 -4.50006 -10.8284
upperneck 28.8291 -6.50762 9.59888
head 13.3335 -2.93702 4.52018
rclavicle -2.48729e-014 1.05356e-014
rhumerus -36.1167 -7.75723 -84.0996
rradius 31.4291
rwrist 5.83173
rhand -17.2321 7.6304
rfingers 7.12502
rthumb 9.01138 -22.1571
lclavicle -2.48729e-014 1.05356e-014
lhumerus -36.8098 0.0175283 82.5479
lradius 34.9781
lwrist -6.03016
lhand -16.0457 24.4314
lfingers 7.12502
lthumb 10.156 54.1662
rfemur -14.5777 -6.81283 15.2939
rtibia 69.3598
rfoot 1.04228 -3.57119
rtoes 13.3447
lfemur -2.74102 -2.62583 -27.832
ltibia 10.3703
lfoot -3.3719 -6.73135
ltoes -0.659941
1826
root 4.58327 18.0605 0.518377 -729.218 -63.8351 9.30388
lowerback 11.2825 2.45895 -3.29647
upperback 1.10293 2.78296 -0.622201
thorax -5.29628 1.42001 0.767289
lowerneck -17.6852 -4.44288 -10.5119
upperneck 29.021 -6.38484 9.10782
head 13.3646 -2.91315 4.29322
rclavicle -2.93207e-015 9.34288e-015
rhumerus -36.3435 -8.06732 -83.8485
rradius 31.5248
rwrist 5.51073
rhand -17.353 7.85121
rfingers 7.12502
rthumb 8.89469 -21.9413
lclavicle -2.93207e-015 9.34288e-015
lhumerus -36.5429 0.0253282 82.5329
lradius 35.1998
lwrist -6.12034
lhand -16.3916 24.6976
lfingers 7.12502
lthumb 9.82239 54.4485
rfemur -15.3565 -7.01023 15.0503
rtibia 69.6033
rfoot 0.0277874 -3.48693
rtoes 12.8068
lfemur -2.15332 -2.39489 -28.1269
ltibia 10.4324
lfoot -4.07193 -7.12152
ltoes -2.99437
1827
root 4.48483 18.0528 0.567453 -729.408 -63.5045 9.40857
lowerback 11.3854 2.33266 -3.40094
upperback 1.09565 2.59762 -0.617423
thorax -5.35866 1.33167 0.856612
lowerneck -17.7369 -4.35652 -10.1904
upperneck 29.2722 -6.20968 8.58652
head 13.426 -2.86963 4.06413
rclavicle -1.71452e-014 7.95139e-015
rhumerus -36.5384 -8.32977 -83.6261
rradius 31.5936
rwrist 5.35514
rhand -17.5803 7.93977
rfingers 7.12502
rthumb 8.67541 -21.862
lclavicle -1.71452e-014 7.95139e-015
lhumerus -36.0651 -0.281709 82.5221
lradius 35.2488
lwrist -5.89955
lhand -16.4116 24.8207
lfingers 7.12502
lthumb 9.80303 54.5725
rfemur -16.2497 -7.1296 14.898
rtibia 69.6748
rfoot -1.06526 -3.4482
rtoes 13.8857
lfemur -1.67409 -2.46385 -28.2617
ltibia 10.4864
lfoot -4.58818 -7.20482
ltoes -4.21431
1828
root 4.38772 18.0468 0.617578 -729.312 -63.278 9.2684
lowerback 11.4432 2.19382 -3.38594
upperback 1.06608 2.41742 -0.540624
thorax -5.41699 1.24487 0.955119
lowerneck -17.656 -4.31922 -10.5286
upperneck 29.266 -6.15266 8.88153
head 13.4233 -2.84809 4.25338
rclavicle 8.32162e-014 -2.18663e-014
rhumerus -36.7305 -8.27616 -83.4398
rradius 31.7231
rwrist 5.04986
rhand -17.6279 8.16894
rfingers 7.12502
rthumb 8.62948 -21.6347
lclavicle 8.32162e-014 -2.18663e-014
lhumerus -35.6263 -0.371969 82.5035
lradius 35.3368
lwrist -5.6502
lhand -16.5868 24.8499
lfingers 7.12502
lthumb 9.63399 54.6096
rfemur -17.2195 -7.33034 14.8536
rtibia 69.5752
rfoot -2.16894 -3.26734
rtoes 13.3826
lfemur -1.37385 -2.52977 -28.2639
ltibia 10.7432
lfoot -5.10582 -7.15328
ltoes -3.62765
1829
root 4.28859 18.0367 0.666841 -729.448 -62.9965 9.43332
lowerback 11.4165 2.08836 -3.48503
upperback 1.08067 2.26536 -0.554999
thorax -5.38329 1.17159 1.02178
lowerneck -17.6119 -4.31611 -10.7388
upperneck 29.1648 -6.19319 9.23498
head 13.3979 -2.84455 4.42378
rclavicle -3.37934e-015 4.77083e-015
rhumerus -36.8963 -8.43689 -83.2671
rradius 31.913
rwrist 4.77402
rhand -17.3297 8.42666
rfingers 7.12502
rthumb 8.91716 -21.3649
lclavicle -3.37934e-015 4.77083e-015
lhumerus -35.2914 -0.47096 82.4762
lradius 35.6021
lwrist -5.52173
lhand -16.7964 24.8165
lfingers 7.12502
lthumb 9.43176 54.5854
rfemur -18.1836 -7.5181 14.6713
rtibia 69.3445
rfoot -3.23297 -3.17489
rtoes 13.4962
lfemur -1.24299 -2.45959 -28.4092
ltibia 11.2601
lfoot -5.65109 -7.23802
ltoes -0.890947
1830
root 4.19002 18.0214 0.714065 -729.408 -62.7846 9.41208
lowerback 11.3868 2.01967 -3.52682
upperback 1.09169 2.17251 -0.523069
thorax -5.35368 1.12687 1.09498
lowerneck -17.5545 -4.32295 -10.7261
upperneck 29.1032 -6.17328 9.13415
head 13.3528 -2.84734 4.38188
rclavicle -2.64632e-014 -2.78299e-015
rhumerus -37.0483 -8.56904 -83.0967
rradius 32.111
rwrist 4.5465
rhand -17.416 8.23711
rfingers 7.12502
rthumb 8.83389 -21.558
lclavicle -2.64632e-014 -2.78299e-015
lhumerus -34.9774 -0.787457 82.5792
lradius 35.8851
lwrist -5.2602
lhand -16.807 24.7912
lfingers 7.12502
lthumb 9.42159 54.5607
rfemur -19.1457 -7.51166 14.6511
rtibia 68.9739
rfoot -4.30872 -3.25195
rtoes 13.436
lfemur -1.24984 -2.2781 -28.437
ltibia 12.0196
lfoot -6.27557 -7.36786
ltoes 0.450957
1831
root 4.09412 18.0033 0.761363 -729.293 -62.5633 9.28934
lowerback 11.4347 1.87559 -3.5924
upperback 1.05219 1.97786 -0.406288
thorax -5.41915 1.0357 1.28355
lowerneck -17.4464 -4.26068 -10.814
upperneck 29.1228 -6.02107 8.99177
head 13.3161 -2.8122 4.36684
rclavicle -1.64743e-014 3.18055e-015
rhumerus -37.2556 -8.27373 -82.9662
rradius 32.3521
rwrist 4.22285
rhand -17.6967 8.03783
rfingers 7.12502
rthumb 8.56305 -21.7685
lclavicle -1.64743e-014 3.18055e-015
lhumerus -34.6015 -0.872691 82.6009
lradius 35.9991
lwrist -5.07342
lhand -16.6156 24.4995
lfingers 7.12502
lthumb 9.60626 54.2605
rfemur -20.0602 -7.47763 14.7024
rtibia 68.455
rfoot -5.28275 -3.15468
rtoes 12.6743
lfemur -1.29591 -2.3208 -28.4304
ltibia 12.9089
lfoot -6.94436 -7.31947
ltoes 0.187851
1832
root 3.99667 17.9849 0.811857 -729.419 -62.3748 9.38043
lowerback 11.509 1.77405 -3.62915
upperback 1.04633 1.8348 -0.406072
thorax -5.46062 0.966725 1.32574
lowerneck -17.4919 -4.24121 -10.758
upperneck 29.2398 -5.98329 8.88592
head 13.3641 -2.80419 4.32445
rclavicle -1.28216e-014 -1.98785e-015
rhumerus -37.4691 -8.14639 -82.9111
rradius 32.6229
rwrist 3.9985
rhand -17.7023 7.824
rfingers 7.12502
rthumb 8.55765 -21.9826
lclavicle -1.28216e-014 -1.98785e-015
lhumerus -34.1128 -0.804506 82.4647
lradius 36.0864
lwrist -5.18418
lhand -16.6358 24.3502
lfingers 7.12502
lthumb 9.58671 54.112
rfemur -20.8657 -7.43954 14.6008
rtibia 67.7802
rfoot -5.97627 -2.88931
rtoes 12.7739
lfemur -1.271 -2.37634 -28.5488
ltibia 13.8038
lfoot -7.69843 -7.1798
ltoes -0.399016
1833
root 3.89714 17.9662 0.860149 -729.39 -62.2035 9.32916
lowerback 11.5532 1.71008 -3.60372
upperback 1.03144 1.74949 -0.430163
thorax -5.49502 0.924575 1.29883
lowerneck -17.5251 -4.26836 -10.6766
upperneck 29.3461 -6.04759 8.85221
head 13.42 -2.82912 4.28885
rclavicle 4.98204e-014 6.75868e-015
rhumerus -37.6561 -8.25547 -82.8637
rradius 32.8206
rwrist 3.90329
rhand -17.5601 7.8
rfingers 7.12502
rthumb 8.69489 -22.0009
lclavicle 4.98204e-014 6.75868e-015
lhumerus -33.7542 -0.873942 82.3609
lradius 36.2838
lwrist -5.26798
lhand -16.8708 24.254
lfingers 7.12502
lthumb 9.35997 54.0262
rfemur -21.6507 -7.3451 14.5871
rtibia 66.9475
rfoot -6.6769 -3.12298
rtoes 12.64
lfemur -1.25131 -2.28555 -28.5755
ltibia 14.6428
lfoot -8.45135 -7.15197
ltoes -0.896989
1834
root 3.80004 17.9463 0.904868 -729.327 -61.9429 9.35742
lowerback 11.5579 1.57684 -3.74718
upperback 0.94923 1.55688 -0.376238
thorax -5.57994 0.836828 1.46637
lowerneck -17.4241 -4.22888 -10.7606
upperneck 29.3794 -5.97386 8.83551
head 13.4054 -2.81264 4.31107
rclavicle -3.32219e-014 1.66979e-014
rhumerus -37.8699 -8.00304 -82.7759
rradius 33.0457
rwrist 3.5483
rhand -17.3692 8.11687
rfingers 7.12502
rthumb 8.87911 -21.6763
lclavicle -3.32219e-014 1.66979e-014
lhumerus -33.6507 -0.713207 82.3212
lradius 36.5492
lwrist -5.52232
lhand -16.8929 24.0737
lfingers 7.12502
lthumb 9.33871 53.8468
rfemur -22.5173 -7.26337 14.5399
rtibia 65.9817
rfoot -7.30429 -3.61062
rtoes 11.962
lfemur -1.32748 -2.1928 -28.6289
ltibia 15.3957
lfoot -9.17416 -7.23661
ltoes -1.37904
